<?xml version="1.0" encoding="UTF-8"?>
<svg id="_레이어_2" data-name="레이어 2" xmlns="http://www.w3.org/2000/svg" viewBox="0 0 269.11 89">
  <defs>
    <style>
      .cls-1 {
        stroke-width: 0px;
      }
    </style>
  </defs>
  <g id="_레이어_1-2" data-name="레이어 1">
    <g>
      <path class="cls-1" d="M114.13,63.63h5.58v-5.53h-5.58v5.53ZM25.99,53.2c3.12-1.2,5.62-3,7.49-5.4,1.87-2.4,2.81-5.42,2.81-9.07,0-3.26-.77-6.07-2.3-8.42-1.54-2.35-3.8-4.18-6.8-5.47-3-1.3-6.68-1.94-11.05-1.94H.07v5.83l4.68.43v37.08l-4.75,1.01.65,5.4h16.42v-5.47l-4.32-.79v-11.16c1.1,0,2.11-.02,3.02-.07.91-.05,1.8-.1,2.66-.14l7.85,17.64h11.02v-5.47l-4.61-.79-6.7-13.18ZM22.43,47.33c-1.85.74-4.12,1.12-6.8,1.12h-2.88v-18.79h2.3c3.12.05,5.63.42,7.52,1.12,1.9.7,3.29,1.72,4.18,3.06.89,1.34,1.33,3.05,1.33,5.11s-.48,3.73-1.44,5.15c-.96,1.42-2.36,2.5-4.21,3.24ZM64.08,65.87c-1.44.61-3.07,1.08-5.04,1.08-3.07,0-5.33-.79-6.77-2.38s-2.33-3.55-2.66-5.9l2.66.07c2.11,0,4.19-.19,6.23-.58,2.04-.38,3.88-1.01,5.51-1.87,1.63-.86,3.94-2.04,4.92-3.53.98-1.49,1.48-3.31,1.48-5.47s-.58-4.03-1.73-5.47c-1.15-1.44-3.63-2.51-5.43-3.2-1.8-.7-3.68-1.04-5.65-1.04-2.74,0-5.32.68-7.74,2.05-2.42,1.37-4.37,3.38-5.83,6.05-1.46,2.66-2.2,5.96-2.2,9.9,0,3.7.72,6.84,2.16,9.43,1.44,2.59,3.38,4.56,5.83,5.9,2.45,1.34,5.16,2.02,8.14,2.02,1.73,0,3.3-.3,4.79-.58,4.56-.85,6.64-1.7,8.56-2.85,10-6,14-9,18-15v-7c-3,5-15.06,14.07-25.23,18.37ZM50.83,48.37c.72-1.49,1.67-2.66,2.84-3.53,1.18-.86,2.51-1.3,4-1.3,1.1,0,2.08.31,2.92.94.84.62,1.26,1.63,1.26,3.02,0,1.2-.34,2.18-1.01,2.95-.67.77-1.52,1.36-2.56,1.76-1.03.41-2.15.68-3.35.83-1.2.14-2.33.22-3.38.22l-2.02-.07c.14-1.73.58-3.34,1.3-4.82ZM123.43,25.65c-1.86-.9-3.98-1.35-6.37-1.35-2.24,0-4.25.51-6.04,1.52-1.79,1.01-3.22,2.45-4.31,4.31-1.08,1.86-1.72,4-1.9,6.42l3.85.27c.25-2.74,1.14-4.91,2.65-6.5,1.52-1.59,3.49-2.38,5.91-2.38s4.45.65,5.99,1.95c1.54,1.3,2.28,2.98,2.25,5.04,0,.94-.18,1.76-.54,2.47-.36.7-.83,1.34-1.41,1.9-.58.56-1.41,1.27-2.49,2.14l-1.25.92c-1.59,1.3-2.76,2.78-3.49,4.44-.74,1.66-1.11,3.47-1.11,5.42h3.52c0-1.52.32-2.92.95-4.2.63-1.28,1.6-2.39,2.9-3.33l.05-.05c1.59-1.16,2.86-2.22,3.82-3.2s1.68-2,2.17-3.06c.49-1.07.73-2.21.73-3.44,0-2.06-.52-3.89-1.54-5.5-1.03-1.61-2.48-2.86-4.33-3.77ZM225.52,43.84c.6-.24,1.26-.36,1.98-.36.77,0,1.37.08,1.8.25.43.17.7.3.79.4l1.73,3.67,7.99-3.17c-.48-1.01-1.22-2.06-2.23-3.17-1.01-1.1-2.33-2.04-3.96-2.81-1.63-.77-3.58-1.15-5.83-1.15s-4.21.44-6.01,1.33c-1.8.89-3.23,2.09-4.28,3.6-1.06,1.51-1.58,3.25-1.58,5.22,0,2.16.73,4.08,2.2,5.76,1.46,1.68,3.73,3.1,6.8,4.25,1.1.48,2.2.92,3.28,1.33,1.08.41,1.98.92,2.7,1.55.72.62,1.08,1.46,1.08,2.52,0,.91-.24,1.66-.72,2.23-.48.58-1.07,1-1.76,1.26-.7.26-1.33.4-1.91.4-.82,0-1.51-.07-2.09-.22-.58-.14-1.01-.24-1.3-.29l-1.8-4.39-8.06,3.1c.53,1.15,1.37,2.33,2.52,3.53s2.6,2.2,4.36,2.99,3.73,1.19,5.94,1.19,4.1-.4,5.98-1.19c1.87-.79,3.4-1.98,4.57-3.56s1.76-3.53,1.76-5.83-.68-4.36-2.05-5.87c-1.37-1.51-3.13-2.75-5.29-3.71-1.58-.72-3.04-1.36-4.36-1.91-1.32-.55-2.37-1.13-3.13-1.73-.77-.6-1.15-1.33-1.15-2.2,0-.77.19-1.4.58-1.91.38-.5.88-.88,1.48-1.12ZM261.41,52.69c-1.58-.72-3.04-1.36-4.36-1.91-1.32-.55-2.36-1.13-3.13-1.73-.77-.6-1.15-1.33-1.15-2.2,0-.77.19-1.4.58-1.91.38-.5.88-.88,1.48-1.12.6-.24,1.26-.36,1.98-.36.77,0,1.37.08,1.8.25.43.17.7.3.79.4l1.73,3.67,7.99-3.17c-.48-1.01-1.22-2.06-2.23-3.17-1.01-1.1-2.33-2.04-3.96-2.81-1.63-.77-3.58-1.15-5.83-1.15s-4.21.44-6.01,1.33c-1.8.89-3.23,2.09-4.29,3.6-1.06,1.51-1.58,3.25-1.58,5.22,0,2.16.73,4.08,2.2,5.76,1.46,1.68,3.73,3.1,6.8,4.25,1.1.48,2.2.92,3.28,1.33,1.08.41,1.98.92,2.7,1.55.72.62,1.08,1.46,1.08,2.52,0,.91-.24,1.66-.72,2.23s-1.07,1-1.76,1.26c-.7.26-1.33.4-1.91.4-.82,0-1.51-.07-2.09-.22s-1.01-.24-1.29-.29l-1.8-4.39-8.06,3.1c.53,1.15,1.37,2.33,2.52,3.53s2.6,2.2,4.36,2.99c1.75.79,3.73,1.19,5.94,1.19s4.1-.4,5.98-1.19c1.87-.79,3.39-1.98,4.57-3.56,1.17-1.58,1.76-3.53,1.76-5.83s-.68-4.36-2.05-5.87c-1.37-1.51-3.13-2.75-5.29-3.71ZM174.15,22.31l-2.38-2.52-9.58,1.44.72,4.46h3.82v41.83l-24.43.98v4.13h36.38v-4.1l-4.54-1.08V22.31ZM199.38,58.16c2.04-.38,3.88-1.01,5.51-1.87,1.63-.86,2.94-2.04,3.92-3.53.98-1.49,1.48-3.31,1.48-5.47s-.58-4.03-1.73-5.47-2.63-2.51-4.43-3.2c-1.8-.7-3.68-1.04-5.65-1.04-2.74,0-5.32.68-7.74,2.05-2.42,1.37-4.37,3.38-5.83,6.05-1.46,2.66-2.2,5.96-2.2,9.9,0,3.7.72,6.84,2.16,9.43,1.44,2.59,3.38,4.56,5.83,5.9,2.45,1.34,5.16,2.02,8.14,2.02,1.73,0,3.32-.19,4.79-.58,1.46-.38,2.75-.86,3.85-1.44,1.1-.58,1.94-1.18,2.52-1.8l-1.51-5.54c-.96.82-2.14,1.58-3.53,2.3-1.39.72-3.07,1.08-5.04,1.08-3.07,0-5.33-.79-6.77-2.38-1.44-1.58-2.33-3.55-2.66-5.9l2.66.07c2.11,0,4.19-.19,6.23-.58ZM190.42,53.2c.14-1.73.58-3.34,1.3-4.82.72-1.49,1.67-2.66,2.84-3.53,1.18-.86,2.51-1.3,4-1.3,1.1,0,2.08.31,2.92.94.84.62,1.26,1.63,1.26,3.02,0,1.2-.34,2.18-1.01,2.95-.67.77-1.52,1.36-2.56,1.76-1.03.41-2.15.68-3.35.83-1.2.14-2.33.22-3.38.22l-2.02-.07Z"/>
      <path class="cls-1" d="M142.81,89h-54V5h54v84ZM94.31,75l44,9V9L94.31,0v75Z"/>
    </g>
  </g>
</svg>